<?xml version="1.0" encoding="utf-8"?>
<!-- Generator: Adobe Illustrator 24.3.0, SVG Export Plug-In . SVG Version: 6.00 Build 0)  -->
<svg version="1.1" id="Capa_1" xmlns="http://www.w3.org/2000/svg" xmlns:xlink="http://www.w3.org/1999/xlink" x="0px" y="0px"
	 viewBox="0 0 111.3 22.2" style="enable-background:new 0 0 111.3 22.2;" xml:space="preserve">
<style type="text/css">
	.st0{fill:#D51C24;}
	.st1{fill:#1F1F1D;}
	.st2{fill:#20201E;}
	.st3{fill:#21211F;}
	.st4{fill:#2C2C2A;}
	.st5{fill:#2E2E2C;}
	.st6{fill:#31312F;}
	.st7{fill:#282826;}
	.st8{fill:#F5F5F4;}
	.st9{fill:#F8F8F8;}
	.st10{fill:#E8E8E8;}
	.st11{fill:#F5F5F5;}
	.st12{fill:#F1F1F0;}
	.st13{fill:#F3F3F3;}
	.st14{fill:#EEEEEE;}
	.st15{fill:#FBFBFB;}
</style>
<g>
	<path class="st0" d="M67.4,22.2c-3.3,0-6.7,0-10,0c-0.8,0-1.1-0.1-1.1-1c0-6.7,0-13.4,0-20.1c0-0.7,0.2-1,1-1c6.7,0,13.5,0,20.2,0
		c0.7,0,1,0.1,1,0.9c0,5.2,0,10.3,0,15.5c0,0.7-0.1,0.9-0.9,0.9c-5.1,0-10.2,0-15.3,0c-0.7,0-0.8-0.2-0.8-0.9c0-3.6,0-7.3,0-10.9
		c0-0.7,0.2-0.8,0.9-0.8c3.4,0,6.8,0,10.2,0c0.7,0,0.9,0.2,0.9,0.9c0,2.1,0,4.2,0,6.3c0,0.6-0.2,0.8-0.8,0.8c-1.7,0-3.5,0-5.2,0
		c-0.6,0-0.8-0.1-0.8-0.8c-0.1-2.4-0.1-2.4,2.3-2.4c0.6,0,1.2,0.2,1.1-0.8c0-1-0.7-0.7-1.2-0.7c-1.3,0-2.9-0.6-3.7,0.2
		c-0.7,0.7-0.2,2.4-0.2,3.6c0,2.5,0,2.5,2.5,2.5c2.2,0,4.4,0,6.6,0c0.8,0,1.1-0.1,1.1-1c0-3.1,0-6.1,0-9.2c0-0.7-0.2-0.9-0.8-0.9
		c-4.5,0-9.1,0-13.6,0c-0.7,0-0.9,0.2-0.8,0.9c0,4.6,0,9.3,0,13.9c0,0.9,0.4,0.9,1,0.9c5.5,0,11,0,16.5,0c1,0,1.2,0.3,1.2,1.2
		c-0.1,2,0,2-2,2C73.5,22.2,70.5,22.2,67.4,22.2z"/>
	<path class="st0" d="M43.8,0.1c3.4,0,6.7,0,10.1,0c0.7,0,0.9,0.1,0.9,0.9c0,6.7,0,13.5,0,20.2c0,0.8-0.2,1-1,1
		c-6.7,0-13.5,0-20.2,0c-0.8,0-1-0.2-1-1c0-5.1,0-10.2,0-15.3c0-0.8,0.2-1.1,1-1.1c5,0,10.1,0,15.1,0c0.8,0,1,0.2,1,1
		c0,3.6,0,7.1,0,10.7c0,0.8-0.2,1-1,1c-3.3,0-6.7,0-10,0c-0.7,0-1-0.1-1-0.9c0.1-2.1,0-4.1,0-6.2c0-0.6,0.2-0.8,0.8-0.8
		c1.8,0,3.6,0,5.3,0c0.6,0,0.8,0.2,0.8,0.8c0.1,2.4,0.1,2.4-2.2,2.4c-0.5,0-1.3-0.4-1.3,0.8c0,0.6,0.2,0.8,0.8,0.8
		c1.2,0,2.3,0,3.5,0c0.6,0,0.8-0.1,0.8-0.8c0-1.6,0-3.2,0-4.8c0-0.6-0.2-0.8-0.8-0.8c-2.9,0-5.7,0-8.6,0c-0.6,0-0.8,0.2-0.8,0.8
		c0,3.1,0,6.3,0,9.4c0,0.6,0.2,0.8,0.8,0.8c4.6,0,9.1,0,13.7,0c0.6,0,0.8-0.2,0.8-0.8c0-4.7,0-9.4,0-14.1c0-0.9-0.5-0.8-1.1-0.8
		c-5.4,0-10.8,0-16.3,0c-1.2,0-1.6-0.4-1.4-1.5c0-0.2,0-0.5,0-0.7c-0.1-0.8,0.2-1.1,1-1C37.1,0.1,40.4,0.1,43.8,0.1z"/>
</g>
</svg>
