<svg id="Capa_1" data-name="Capa 1" xmlns="http://www.w3.org/2000/svg" width="16.25mm" height="7.84mm" viewBox="0 0 46.05 22.21">
  <defs>
    <style>
      .cls-1 {
        fill: #d51c24;
      }
    </style>
  </defs>
  <g>
    <path class="cls-1" d="M67.53,22.11h-10c-.77,0-1.07-.14-1.07-1V1c0-.74.17-1,1-1H77.69c.72,0,1,.15,1,.94V16.4c0,.69-.14.94-.89.93H62.45c-.67,0-.84-.21-.83-.86V5.54c0-.69.24-.83.87-.82H72.72c.66,0,.86.19.85.85v6.27c0,.61-.19.8-.8.79H67.54c-.56,0-.8-.11-.82-.75-.08-2.42-.11-2.42,2.28-2.44.56,0,1.17.17,1.15-.8S69.4,8,68.9,8c-1.26,0-2.91-.56-3.68.23S65,10.54,65,11.77c0,2.46,0,2.47,2.48,2.47h6.62c.76,0,1.11-.13,1.09-1V4.06c0-.67-.18-.87-.85-.87H60.76c-.67,0-.85.23-.85.87v14c0,.86.38.91,1,.91H77.42c1,0,1.21.3,1.18,1.24-.06,2,0,2-2,2Z" transform="translate(-32.64 0)"/>
    <path class="cls-1" d="M43.88.05H54c.68,0,.93.14.92.89V21.16c0,.77-.22,1-1,1H33.69c-.76,0-1-.22-1-1V5.82c0-.78.16-1.07,1-1.06H48.8c.75,0,1,.19,1,1V16.45c0,.78-.25,1-1,1h-10c-.71,0-1-.12-1-.93.07-2.06,0-4.11,0-6.16,0-.6.16-.83.78-.81h5.35c.62,0,.77.23.8.81.1,2.37.12,2.36-2.23,2.39-.53,0-1.32-.35-1.26.77,0,.58.17.83.79.81h3.49c.57,0,.85-.13.83-.77V8.8c0-.63-.23-.79-.82-.79h-8.6c-.63,0-.77.23-.77.82v9.41c0,.63.23.78.81.78H50.69c.62,0,.79-.23.79-.82V4.14c0-.95-.53-.84-1.12-.84H34.09c-1.23,0-1.59-.36-1.41-1.48a2.06,2.06,0,0,0,0-.7c-.12-.8.19-1,1-1C37.14.08,40.51.05,43.88.05Z" transform="translate(-32.64 0)"/>
  </g>
</svg>
